<?xml version="1.0" standalone="no"?>
<!DOCTYPE svg PUBLIC "-//W3C//DTD SVG 20010904//EN"
 "http://www.w3.org/TR/2001/REC-SVG-20010904/DTD/svg10.dtd">
<svg version="1.0" xmlns="http://www.w3.org/2000/svg"
 width="500.000000pt" height="500.000000pt" viewBox="0 0 500.000000 500.000000"
 preserveAspectRatio="xMidYMid meet">
<metadata>
Created by potrace 1.11, written by Peter Selinger 2001-2013
</metadata>
<g transform="translate(0.000000,500.000000) scale(0.100000,-0.100000)"
fill="#000000" stroke="none">
<path d="M6 4984 c-11 -29 -6 -35 39 -55 187 -83 446 -79 637 10 124 57 122
59 -57 57 -116 -1 -160 -5 -163 -14 -2 -6 -11 -12 -19 -12 -8 0 -13 6 -10 13
4 10 -19 13 -102 14 -101 1 -107 0 -133 -25 -16 -14 -28 -21 -28 -15 0 6 6 13
13 16 6 2 9 7 6 11 -9 10 -37 10 -81 1 -26 -5 -38 -4 -38 4 0 17 -57 13 -64
-5z m224 -8 c0 -3 -4 -8 -10 -11 -5 -3 -10 -1 -10 4 0 6 5 11 10 11 6 0 10 -2
10 -4z m90 -66 c0 -5 -2 -10 -4 -10 -3 0 -8 5 -11 10 -3 6 -1 10 4 10 6 0 11
-4 11 -10z"/>
<path d="M820 4973 c-53 -38 -146 -79 -243 -107 -48 -14 -95 -32 -103 -41 -9
-8 -25 -15 -36 -15 -18 0 -19 2 -7 16 12 15 11 16 -11 9 -53 -17 -232 8 -348
48 l-72 25 0 -28 c0 -37 11 -45 115 -75 112 -33 262 -43 372 -25 95 15 203 47
203 60 0 6 6 10 13 10 28 0 174 81 207 115 l34 35 -45 0 c-31 -1 -54 -9 -79
-27z"/>
<path d="M1875 4989 c-27 -4 -76 -4 -107 -1 -71 6 -74 -6 -13 -48 40 -27 52
-31 103 -28 52 4 54 5 25 12 -26 7 -33 14 -33 33 0 19 4 24 16 19 9 -3 21 -6
27 -6 7 0 21 -7 32 -16 16 -12 17 -17 7 -23 -9 -5 0 -10 27 -15 28 -4 56 0 93
13 29 11 62 21 73 23 31 6 -92 41 -150 43 -27 1 -72 -2 -100 -6z"/>
<path d="M892 4860 c-34 -28 -69 -50 -77 -50 -8 0 -24 -9 -34 -19 -11 -11 -21
-18 -23 -15 -2 2 -38 -8 -79 -23 -194 -67 -435 -70 -646 -7 l-23 6 0 -179 c0
-165 2 -182 20 -206 24 -30 26 -57 5 -57 -10 0 -14 -10 -13 -35 1 -20 5 -38 9
-40 10 -7 -1 -48 -15 -57 -17 -11 -8 -267 10 -285 8 -8 14 -22 14 -30 0 -9 11
-30 24 -47 13 -18 25 -40 27 -51 3 -12 12 -20 24 -20 16 0 20 7 20 40 0 29 4
39 14 37 8 -2 18 3 22 10 6 9 9 4 9 -14 0 -16 -5 -28 -11 -28 -7 0 -9 -10 -5
-27 4 -16 8 -37 10 -48 2 -12 15 -23 37 -29 23 -6 28 -11 16 -13 -9 -3 -17 -7
-17 -10 0 -9 70 -73 80 -73 14 0 13 -21 -2 -53 -7 -15 -19 -27 -27 -27 -8 0 0
-11 19 -25 40 -29 35 -28 52 -12 9 9 33 11 80 7 l68 -5 -20 -30 c-12 -16 -46
-72 -76 -123 l-55 -93 -20 25 c-35 44 -97 30 -114 -25 -12 -35 14 -96 45 -109
l27 -11 -48 -142 c-26 -78 -60 -203 -75 -277 -26 -127 -28 -150 -28 -380 l1
-245 42 -180 c24 -99 47 -207 52 -240 15 -89 14 -86 38 -155 7 -19 17 -50 21
-69 5 -18 13 -38 19 -44 6 -6 11 -17 11 -25 0 -7 11 -29 25 -49 13 -20 22 -40
19 -44 -4 -7 42 -107 56 -119 7 -7 60 -96 85 -142 11 -21 24 -38 30 -38 6 0
17 -10 25 -22 8 -11 23 -28 32 -37 10 -8 18 -21 18 -28 0 -7 5 -13 11 -13 6 0
9 -6 6 -12 -5 -15 36 -56 69 -68 17 -7 22 -15 19 -31 -5 -24 21 -50 42 -42 7
3 13 0 13 -6 0 -6 6 -11 13 -11 7 0 18 -9 25 -20 7 -12 17 -18 22 -15 6 4 9
-4 7 -17 -1 -14 3 -22 11 -21 6 2 12 -6 12 -16 0 -11 9 -23 20 -26 11 -4 18
-10 15 -15 -3 -5 0 -12 6 -16 8 -4 9 -3 5 4 -4 7 -3 12 2 12 6 0 13 -7 16 -16
5 -14 9 -14 22 -3 14 11 15 10 12 -7 -2 -12 2 -18 11 -16 12 3 12 0 1 -12 -11
-14 -9 -16 9 -16 12 0 19 5 16 10 -3 6 4 10 17 10 13 0 18 -3 12 -8 -12 -8
-15 -42 -3 -42 4 0 10 6 13 13 5 9 7 9 12 0 3 -7 13 -13 22 -13 14 0 15 -2 2
-10 -20 -12 -8 -22 32 -24 19 -2 32 -7 31 -14 -2 -7 5 -13 15 -13 63 -5 75
-10 78 -30 1 -5 2 -13 3 -19 0 -5 8 -6 18 -3 11 4 14 3 9 -6 -6 -9 -3 -9 13 1
18 11 26 10 53 -5 25 -14 33 -15 39 -5 6 9 9 10 9 1 0 -7 -8 -16 -17 -22 -10
-5 -15 -13 -11 -17 4 -4 15 -1 24 7 15 12 17 12 12 -1 -7 -21 61 -83 81 -74
37 15 61 15 77 0 15 -16 15 -18 -2 -38 l-19 -22 27 20 c15 10 28 22 28 27 0 4
4 7 10 7 11 0 1 -32 -14 -42 -6 -5 -2 -8 11 -8 12 0 24 6 26 13 3 6 6 2 6 -11
1 -13 5 -20 11 -17 5 3 7 0 4 -8 -3 -8 -1 -18 5 -22 6 -3 15 2 19 12 6 16 10
17 30 7 15 -7 20 -14 13 -18 -6 -4 -15 -5 -20 -1 -5 3 -12 1 -15 -4 -6 -10 30
-19 56 -13 10 2 15 9 11 18 -4 10 0 12 11 8 8 -3 14 -9 13 -12 -1 -4 3 -9 8
-11 6 -3 16 -11 24 -19 13 -12 17 -12 29 4 12 16 14 16 9 2 -6 -16 2 -17 53
-9 3 1 -2 6 -10 11 -21 13 5 13 30 0 12 -6 16 -17 13 -30 -6 -24 18 -28 37 -5
18 21 35 19 19 -2 -12 -16 -12 -17 2 -6 9 7 20 9 24 5 5 -4 5 -2 2 4 -4 7 2
23 13 35 16 19 19 21 20 7 0 -9 -4 -28 -9 -41 -7 -19 -6 -27 4 -31 9 -3 12 0
9 8 -3 7 3 16 13 19 10 2 27 8 37 13 17 6 18 4 13 -18 -8 -29 2 -31 41 -10 12
7 27 10 33 7 5 -4 16 -2 24 5 8 7 15 7 19 1 4 -5 -2 -15 -11 -21 -17 -11 -17
-11 0 -6 10 3 17 0 17 -7 0 -6 11 1 25 16 30 32 39 34 30 8 -8 -26 11 -36 24
-14 9 15 12 15 20 4 6 -9 11 -10 15 -2 13 20 28 12 21 -11 -6 -23 -6 -23 10
-3 15 19 17 19 26 2 12 -21 48 -23 55 -2 4 8 10 12 15 9 22 -13 69 -23 63 -12
-4 7 2 8 17 3 26 -9 106 -8 120 1 5 3 9 0 9 -6 0 -8 6 -8 20 0 15 8 20 8 20
-2 1 -10 4 -9 13 2 7 9 24 14 40 12 16 -2 35 2 43 9 11 9 14 9 14 0 0 -7 8
-11 18 -10 31 3 43 -1 37 -11 -3 -5 0 -10 8 -10 8 0 14 7 13 16 0 10 8 18 24
21 14 2 33 14 43 26 10 12 16 16 12 9 -7 -14 4 -16 23 -3 9 5 22 0 39 -17 17
-17 28 -21 35 -14 6 6 17 8 24 5 8 -3 14 0 14 7 0 6 -5 8 -10 5 -5 -3 -10 -1
-10 5 0 7 8 9 20 5 14 -4 22 -1 26 10 5 12 17 16 52 14 35 -3 47 1 51 14 6 15
9 15 35 2 32 -17 98 -14 104 4 3 9 -8 15 -28 13 -3 0 -7 8 -7 19 -1 12 5 19
17 19 10 0 22 5 26 12 4 6 3 8 -4 4 -6 -3 -13 -2 -17 4 -7 11 5 13 29 4 9 -3
12 -12 9 -22 -4 -9 -3 -14 2 -10 4 4 14 3 21 -3 10 -8 15 -5 20 15 3 14 14 26
23 27 9 0 28 2 44 3 15 1 27 -1 27 -5 0 -4 9 -5 20 -2 11 3 20 11 20 18 0 17
27 38 34 27 3 -5 17 -8 31 -7 28 4 34 -9 9 -19 -8 -3 -13 -10 -9 -16 3 -5 19
-1 38 10 36 23 61 26 34 6 -10 -8 -14 -17 -9 -20 5 -3 15 1 22 9 6 7 18 11 26
8 7 -3 17 2 20 11 6 15 9 15 28 3 22 -14 46 -12 46 4 0 4 -7 6 -15 3 -17 -7
-20 7 -6 21 13 13 131 6 131 -6 0 -6 -4 -7 -10 -4 -5 3 -10 2 -10 -3 0 -21 39
-19 58 3 11 13 18 26 15 28 -2 3 3 17 13 32 15 22 15 30 5 47 -19 30 10 11 43
-28 31 -38 35 -55 6 -29 -11 10 -20 13 -20 7 0 -7 5 -12 11 -12 5 0 7 -4 4
-10 -3 -5 -1 -10 5 -10 6 0 8 -4 5 -10 -11 -18 8 -11 32 12 13 12 23 16 23 10
0 -7 5 -12 11 -12 7 0 9 10 5 24 -7 29 12 46 25 23 8 -14 51 -13 46 2 -1 3 2
7 7 8 5 1 12 7 17 15 6 10 11 10 21 0 6 -6 18 -12 25 -12 22 0 14 20 -11 30
-13 5 -27 14 -31 20 -5 8 -10 8 -20 0 -9 -8 -14 -6 -18 9 -3 12 4 27 19 40 31
27 37 26 29 0 -6 -16 -4 -20 6 -13 12 6 12 5 0 -9 -7 -9 -9 -17 -4 -17 5 0 19
-9 31 -21 15 -13 29 -18 42 -14 24 8 17 25 -11 25 -21 0 -27 20 -6 21 6 0 2 4
-10 9 -25 10 -30 25 -13 35 8 5 8 11 0 20 -8 10 -3 12 25 12 19 -1 35 -5 35
-9 0 -17 29 -7 35 12 3 11 12 21 18 21 7 1 -6 5 -28 9 -22 4 -41 4 -43 0 -2
-4 -12 -6 -22 -3 -11 3 -20 0 -20 -6 0 -6 -5 -11 -11 -11 -23 0 -1 24 33 36
28 10 38 10 41 1 3 -9 7 -9 17 0 9 8 20 9 38 2 16 -6 29 -6 35 0 12 12 -1 33
-16 25 -7 -3 -4 1 7 10 14 12 22 12 37 3 10 -6 22 -8 26 -4 4 5 2 11 -4 15 -8
5 -8 12 1 24 7 10 16 15 19 11 4 -3 7 -1 7 5 0 7 -8 12 -17 12 -15 0 -15 2 -4
9 8 5 16 19 18 31 4 27 22 61 23 43 0 -7 7 -13 15 -13 8 0 15 -4 15 -10 0 -5
7 -10 15 -10 9 0 12 6 9 15 -4 9 0 15 10 15 9 0 16 7 16 15 0 8 -4 15 -10 15
-5 0 -10 7 -10 15 0 18 12 19 28 3 9 -9 13 -7 18 6 5 13 9 14 20 5 8 -6 11
-16 8 -23 -3 -6 2 -2 10 9 15 18 15 20 -6 32 -22 11 -22 12 -3 13 17 0 18 2 5
11 -11 8 -12 12 -3 16 7 2 17 22 23 44 6 22 15 37 20 34 14 -9 50 13 50 31 0
11 -4 12 -19 4 -28 -15 -35 -12 -17 6 14 13 21 42 17 67 0 4 3 7 7 7 5 0 7 16
6 35 -2 19 0 34 4 34 20 -3 33 2 27 11 -3 5 1 20 10 33 9 14 18 41 20 62 3 20
8 42 11 47 4 6 0 14 -7 19 -11 7 -11 9 2 9 9 0 24 15 33 34 9 19 23 37 32 40
9 4 14 13 10 21 -3 9 1 18 8 21 8 3 17 24 21 47 4 23 13 65 20 92 7 28 13 57
13 65 0 8 5 53 11 100 15 114 15 123 -5 137 -38 27 -84 9 -84 -32 0 -12 -11
-45 -25 -73 -14 -29 -25 -55 -25 -58 0 -22 -140 -283 -185 -344 -82 -112 -199
-256 -258 -319 -44 -46 -176 -151 -190 -151 -7 0 -23 -10 -37 -21 -14 -11 -19
-17 -11 -13 9 5 12 3 7 -5 -4 -6 -12 -9 -17 -6 -5 4 -28 -9 -52 -28 -23 -19
-62 -45 -87 -57 -25 -13 -60 -36 -79 -52 -27 -24 -40 -29 -65 -25 -30 5 -136
-22 -136 -34 0 -4 7 -13 17 -20 13 -11 17 -11 20 -1 3 6 16 12 31 12 25 0 25
-1 6 -15 -45 -34 -145 -8 -114 30 10 12 10 15 -4 15 -9 0 -16 6 -16 14 0 7
-16 40 -35 72 -19 33 -46 78 -60 102 -20 34 -29 42 -45 37 -20 -6 -20 -5 -34
97 -2 21 -18 57 -35 82 -17 25 -31 52 -31 60 0 9 -9 30 -20 48 -11 18 -20 44
-20 58 0 29 -36 67 -44 47 -2 -7 -4 103 -4 243 1 140 3 237 6 215 4 -35 6 -37
11 -15 12 45 35 30 43 -29 5 -29 15 -65 23 -80 8 -14 19 -38 25 -53 9 -27 82
-88 105 -88 7 0 37 -8 68 -19 31 -10 54 -14 51 -10 -3 5 -1 9 3 9 5 0 41 -78
82 -172 40 -95 80 -178 88 -185 11 -9 21 -9 34 -2 18 9 19 29 20 362 1 194 3
344 6 334 4 -14 14 -10 65 30 33 26 71 66 84 88 26 45 32 112 13 147 -19 36
-62 68 -84 62 -13 -3 -16 -2 -8 3 9 6 2 17 -22 36 -40 32 -44 33 -47 10 -1
-10 -5 50 -8 132 l-5 150 -30 0 -30 0 -3 -152 c-1 -91 -6 -153 -12 -153 -6 0
-10 -5 -10 -11 0 -5 5 -7 10 -4 5 3 10 1 10 -4 0 -6 -9 -11 -20 -11 -11 0 -20
-6 -20 -14 0 -19 -39 -17 -62 2 -11 9 -25 11 -40 6 -31 -10 -78 -11 -78 -2 0
5 -3 7 -7 7 -18 -3 -33 2 -33 10 0 16 32 22 48 9 13 -11 14 -11 8 0 -6 10 -1
13 20 11 35 -2 74 10 74 23 0 5 -4 7 -10 3 -5 -3 -21 -3 -35 1 -19 5 -23 10
-15 19 5 6 7 15 3 18 -8 9 -56 -4 -65 -17 -5 -7 -8 -7 -8 2 0 9 -7 11 -21 7
-20 -7 -20 -6 -4 18 15 24 15 26 -6 41 -21 14 -25 14 -40 0 -22 -20 -73 -15
-77 8 -5 24 32 31 89 17 68 -18 84 -2 40 39 -31 28 -33 28 -79 17 -27 -7 -52
-9 -58 -4 -13 10 -34 -8 -34 -30 -1 -9 -14 15 -31 53 -16 38 -28 70 -27 71 36
27 195 41 258 22 36 -11 54 -11 92 -1 42 10 47 10 51 -7 11 -42 67 -30 67 15
0 13 7 22 18 23 9 1 45 6 80 10 l62 9 0 -37 c0 -20 6 -42 14 -48 9 -8 74 -11
212 -9 l199 3 0 30 0 30 -85 5 c-84 5 -85 5 -46 17 29 9 44 9 60 1 15 -8 21
-8 24 0 2 8 23 10 62 5 l58 -6 -4 44 c-3 24 -9 74 -15 111 -11 78 -5 101 23
92 20 -6 31 -14 81 -59 14 -12 41 -32 61 -44 20 -13 36 -28 36 -34 1 -7 10
-23 21 -37 20 -24 21 -24 51 -7 16 9 36 17 44 17 15 0 14 28 -7 133 -13 67
-10 88 6 52 8 -16 17 -60 21 -96 l6 -67 43 21 c41 20 44 24 50 74 3 29 4 57 1
62 -3 5 -1 44 5 87 11 82 7 94 -35 94 -41 0 -61 -63 -23 -75 20 -7 19 -8 -13
-14 -19 -4 -38 -5 -41 -2 -3 3 -23 56 -43 116 -85 248 -191 431 -390 674 -34
41 -69 82 -78 92 -16 17 -14 18 55 21 l72 3 0 30 0 30 -130 5 c-71 3 -124 7
-116 8 13 2 -43 46 -189 150 -105 74 -154 104 -261 161 -555 291 -1220 375
-1817 230 -213 -52 -388 -117 -581 -213 -39 -20 -78 -36 -88 -36 -10 0 -61
-25 -113 -55 -52 -30 -96 -53 -97 -51 -2 2 3 25 11 52 15 49 56 232 56 247 0
4 -10 1 -23 -8 -22 -14 -25 -13 -44 7 -11 13 -27 34 -35 48 -19 30 -31 107
-19 114 12 7 29 80 35 146 l5 55 -14 -40 c-7 -22 -14 -54 -14 -71 -1 -34 -19
-64 -41 -67 -8 -2 -21 -6 -27 -10 -8 -5 -13 -4 -13 3 0 6 12 15 27 21 20 7 23
13 15 21 -9 9 -5 23 14 56 l26 44 -24 -13 c-23 -12 -23 -12 -5 9 11 11 16 25
13 31 -4 5 -3 12 1 14 5 3 9 58 11 123 1 70 6 122 13 131 27 32 -2 19 -59 -27z
m1843 -510 c28 -5 77 -13 111 -18 33 -6 89 -21 125 -35 35 -14 78 -29 94 -33
17 -4 42 -15 57 -25 14 -11 38 -19 53 -19 30 0 60 -14 89 -43 12 -10 35 -25
52 -33 17 -7 50 -29 73 -48 42 -36 73 -47 187 -71 69 -15 136 -46 174 -80 14
-12 43 -28 65 -35 68 -22 169 -120 146 -143 -8 -8 -11 -177 -12 -611 -1 -331
-3 -593 -6 -583 -4 15 -7 16 -20 6 -8 -7 -38 -13 -66 -13 -29 0 -55 -4 -59
-10 -4 -6 -8 255 -8 580 0 631 1 621 -47 612 -17 -3 -18 -33 -21 -551 l-2
-547 -220 0 -220 0 -2 541 c-3 486 -5 543 -19 552 -9 6 -24 7 -33 4 -15 -6
-16 -62 -17 -629 0 -428 -3 -615 -10 -598 -9 22 -12 23 -22 9 -17 -22 -161
-47 -172 -29 -3 5 -26 12 -51 16 -25 3 -48 13 -51 21 -4 10 -9 11 -19 2 -10
-8 -21 -6 -44 11 -45 32 -47 18 -3 -20 21 -18 29 -27 18 -22 -37 19 -113 108
-143 168 -38 76 -49 109 -32 99 8 -5 11 -3 8 6 -3 8 -10 13 -16 12 -12 -3 -29
62 -35 132 -3 28 -2 40 0 28 5 -27 18 -30 20 -5 1 9 4 27 8 40 6 19 4 22 -20
22 l-28 0 7 93 c7 90 23 182 25 142 1 -19 1 -19 14 0 21 31 27 54 16 60 -5 4
-14 -4 -19 -17 -9 -21 -10 -20 -5 7 3 17 24 67 45 113 69 145 179 239 312 266
63 13 86 31 75 60 -14 36 -155 5 -247 -54 -115 -74 -217 -228 -259 -394 -12
-44 -24 -128 -27 -187 -6 -84 -10 -106 -20 -102 -17 6 -18 -20 -2 -50 l12 -22
7 25 c6 21 7 19 9 -15 1 -47 39 -192 64 -250 10 -22 13 -35 6 -29 -13 13 -70
176 -70 199 0 8 -4 15 -9 15 -5 0 -5 -16 -1 -37 5 -20 8 -39 8 -42 -2 -8 19
-61 32 -83 6 -10 10 -27 10 -39 0 -31 -39 -21 -59 16 -9 17 -27 46 -41 64 -31
45 -36 91 -9 84 10 -3 19 0 19 6 0 6 -11 11 -25 11 -17 0 -25 6 -26 18 -1 9
-5 -1 -9 -23 -4 -22 -8 167 -9 420 -1 253 -5 466 -10 473 -4 8 -19 12 -32 10
l-24 -3 -5 -550 c-3 -302 -6 -519 -8 -482 -1 50 -6 69 -17 74 -23 8 -26 0 -13
-35 7 -17 9 -34 5 -38 -13 -14 -65 19 -83 52 l-19 35 -6 -28 c-5 -21 -7 -14
-8 26 -1 44 1 52 13 42 10 -9 15 -8 19 3 9 22 -4 56 -20 56 -9 0 -13 -6 -10
-15 4 -8 3 -16 -2 -19 -4 -3 -17 189 -29 426 -15 275 -27 437 -34 445 -6 8
-21 13 -32 11 -21 -3 -21 -9 -27 -268 -4 -146 -7 -289 -8 -318 0 -32 -5 -51
-11 -47 -5 3 -19 1 -30 -5 -16 -9 -19 -15 -10 -25 7 -8 7 -15 1 -19 -6 -4 -6
-18 -1 -37 5 -17 9 -34 8 -38 0 -3 1 -15 2 -26 2 -17 3 -17 10 5 8 24 8 24 8
-5 1 -16 -3 -48 -7 -70 -7 -32 -9 -34 -10 -12 -1 17 -7 27 -17 27 -9 0 -14 -6
-11 -12 2 -7 -2 -20 -9 -29 -7 -8 -15 -24 -17 -35 -1 -10 -6 -25 -11 -33 -5
-8 -3 -16 5 -22 9 -6 10 -9 2 -9 -12 0 -17 -11 -28 -69 -6 -26 -4 -32 6 -26 9
6 11 3 6 -9 -5 -11 -3 -16 4 -14 7 2 20 24 30 48 10 25 18 40 18 33 1 -18 -39
-116 -51 -128 -8 -7 -9 -6 -4 3 4 7 -22 -11 -59 -40 -36 -29 -89 -63 -117 -76
l-51 -22 19 21 c19 22 19 22 -1 14 -50 -21 -91 -17 -123 10 -39 33 -42 22 -5
-19 24 -27 23 -26 -10 3 -45 42 -72 109 -86 217 -20 144 -31 505 -25 770 l7
262 -23 7 c-15 5 -27 2 -38 -9 -14 -14 -16 -64 -16 -413 -1 -398 11 -607 38
-714 7 -27 9 -49 5 -49 -5 0 -9 -4 -9 -10 0 -5 6 -10 13 -10 6 0 22 -19 34
-41 13 -23 16 -36 8 -29 -8 6 -17 20 -20 31 -4 10 -11 19 -16 19 -13 0 -11
-77 2 -85 6 -4 8 -13 6 -20 -6 -15 21 -39 58 -52 l29 -9 -37 -23 c-46 -28 -47
-36 -3 -17 19 8 43 12 54 9 26 -6 46 -45 40 -77 -3 -16 1 -31 10 -38 13 -11
15 -10 9 5 -3 9 -2 17 3 17 5 0 11 24 13 53 2 28 4 -234 5 -584 2 -567 4 -638
18 -650 11 -9 20 -10 32 -2 15 9 17 60 22 549 3 296 6 512 8 480 2 -55 3 -58
17 -40 8 10 15 28 16 39 0 13 8 5 21 -25 46 -102 349 -792 388 -885 46 -110
62 -130 91 -114 18 9 19 34 17 682 l-3 672 -25 4 c-14 1 -29 8 -33 15 -5 7 -7
6 -6 -4 5 -46 -5 -1099 -10 -1070 -3 19 -12 36 -20 38 -13 3 -12 -17 6 -65 3
-10 4 -16 1 -13 -10 9 -418 943 -418 957 0 2 4 2 9 -2 12 -7 25 14 26 40 0 21
37 45 72 45 16 0 38 23 81 83 33 45 69 102 81 126 16 30 26 40 33 33 14 -14
30 -101 22 -124 -3 -10 -1 -18 5 -18 7 0 12 33 12 88 2 83 2 81 10 -40 4 -70
10 -132 14 -138 3 -5 17 -10 30 -10 14 0 25 -7 28 -17 3 -10 4 52 3 137 -2 85
-1 125 1 88 3 -49 8 -68 20 -72 23 -9 25 -3 8 37 -10 25 -12 38 -4 43 6 3 8
15 6 26 -3 11 0 21 9 25 8 3 11 10 8 17 -3 6 3 0 15 -14 29 -37 36 -72 16 -86
-10 -7 -14 -18 -9 -25 5 -9 11 -7 21 6 14 20 16 15 13 -25 -4 -53 13 -7 20 52
7 58 7 55 9 -43 1 -84 4 -109 17 -120 24 -19 48 1 55 47 3 21 7 33 8 25 0 -8
11 -25 22 -37 12 -13 24 -38 28 -56 6 -28 11 -33 35 -33 39 0 58 -29 31 -49
-11 -8 -17 -17 -13 -21 3 -4 -7 -34 -23 -68 -117 -251 -117 -671 2 -936 22
-49 24 -60 9 -41 -28 36 -25 5 5 -47 25 -41 54 -61 41 -26 -4 9 13 -4 36 -29
57 -60 101 -82 165 -81 92 1 167 59 232 182 35 67 51 80 51 41 0 -23 59 -140
71 -140 5 0 9 -10 9 -22 0 -15 11 -29 31 -41 33 -18 33 -15 13 -107 -7 -31 28
-124 47 -126 34 -2 39 -5 39 -19 0 -8 8 -15 18 -15 14 0 15 -2 2 -10 -21 -13
-30 -12 -27 2 1 8 -7 12 -20 10 -12 -2 -24 2 -28 8 -3 6 -11 8 -16 4 -6 -3
-13 3 -16 15 -7 28 -59 28 -132 1 -32 -13 -74 -20 -105 -20 -28 1 -76 -3 -106
-9 -30 -7 -83 -11 -116 -9 -39 1 -67 -2 -77 -10 -8 -7 -18 -9 -20 -5 -3 5 -20
10 -38 11 -18 1 -39 8 -46 14 -9 7 -17 7 -28 -2 -10 -8 -31 -10 -66 -5 -41 6
-51 4 -47 -6 3 -8 15 -19 28 -26 26 -13 22 -15 -31 -27 -33 -7 -171 17 -223
39 -34 14 -191 36 -254 35 -13 0 -21 4 -18 9 8 12 -53 36 -81 33 -15 -2 -33 7
-50 26 -16 16 -45 38 -66 47 -22 10 -61 40 -88 66 -29 28 -60 49 -76 51 -18 2
-28 9 -29 21 -1 12 -1 13 3 2 6 -21 50 -19 61 3 6 11 -31 243 -109 691 -65
371 -121 681 -124 689 -4 10 -14 13 -37 8 -27 -5 -37 -1 -69 30 l-37 36 34 73
c96 209 119 545 54 800 -26 105 -98 252 -145 300 -41 40 -106 74 -143 75 -21
0 -21 2 10 29 18 15 57 43 86 61 29 18 60 46 69 64 36 70 80 108 145 126 20 6
43 16 50 23 45 42 249 105 309 95 8 -2 35 14 59 35 29 25 50 35 62 31 11 -3
38 6 64 20 28 15 62 26 85 26 21 0 73 12 116 26 53 17 91 24 118 20 22 -2 60
-1 85 5 158 33 366 46 465 29z m-870 -90 c-3 -5 -15 -10 -26 -10 -11 0 -17 5
-14 10 3 6 15 10 26 10 11 0 17 -4 14 -10z m-894 -517 c-13 -24 4 -53 32 -54
21 -1 21 -1 -3 -8 l-24 -7 24 -17 c13 -9 30 -17 37 -17 7 0 13 -4 13 -10 0
-13 27 -13 35 0 3 5 -9 19 -27 30 -18 11 -27 20 -20 20 7 0 33 -19 58 -42 75
-69 143 -234 158 -388 7 -60 1 -58 -9 4 -11 63 -19 31 -16 -62 3 -106 23 -144
32 -61 4 40 6 24 7 -61 3 -173 -32 -350 -90 -464 l-20 -39 -63 63 c-47 47 -68
61 -86 58 -45 -6 -34 -39 36 -108 36 -35 65 -70 65 -77 0 -18 -82 -63 -114
-63 -52 0 -117 51 -164 130 -32 55 -79 206 -93 298 -18 126 -7 385 21 491 22
85 57 176 46 119 -3 -14 -8 -34 -12 -45 -3 -10 4 0 15 21 12 22 27 46 35 55
15 18 66 108 66 118 0 15 -53 -45 -71 -79 -11 -21 -22 -38 -24 -38 -11 0 29
67 66 112 22 26 39 52 39 58 0 10 51 80 58 80 2 0 -1 -8 -7 -17z m-442 -29 c6
-15 10 -28 8 -30 -5 -6 -47 35 -47 46 0 21 27 9 39 -16z m-179 -14 c0 -5 9
-10 19 -10 11 0 23 5 26 10 11 18 22 10 29 -22 3 -17 5 -33 3 -35 -9 -9 -37
11 -37 26 -1 14 -3 13 -15 -3 -15 -20 -15 -20 -30 0 -17 22 -19 44 -5 44 6 0
10 -4 10 -10z m3693 3 c-17 -6 -17 -35 0 -31 13 3 67 -51 67 -67 0 -9 59 -95
84 -122 12 -13 26 -23 32 -23 14 0 26 -28 18 -41 -3 -5 1 -21 9 -36 8 -16 28
-55 44 -88 17 -33 39 -87 48 -120 10 -33 26 -79 36 -102 11 -24 19 -47 19 -53
0 -5 7 -10 15 -10 15 0 19 -10 15 -43 -1 -10 8 -47 20 -82 12 -35 20 -79 18
-97 -3 -27 -10 -36 -50 -56 -31 -16 -48 -31 -48 -43 0 -11 -7 -19 -15 -19 -8
0 -15 -4 -15 -10 0 -6 -60 -10 -160 -10 l-160 0 0 406 c0 348 2 408 15 420 14
15 15 38 4 134 -1 14 -6 -11 -9 -55 -6 -79 -6 -79 -8 38 -2 106 0 117 16 116
10 0 12 -3 5 -6z m-3529 -31 c3 -5 -4 -16 -14 -25 -11 -9 -22 -12 -25 -7 -4 6
-1 10 4 10 6 0 11 7 11 15 0 16 15 20 24 7z m-59 -63 c-7 -20 -8 -21 -17 -4
-8 12 -7 20 3 26 18 11 22 5 14 -22z m-45 14 c-1 -10 -50 -70 -50 -62 0 14 32
69 41 69 5 0 9 -3 9 -7z m-73 -28 c8 -22 -6 -33 -17 -15 -13 20 -12 30 0 30 6
0 13 -7 17 -15z m4075 -129 c10 -19 10 -20 -6 -7 -9 8 -22 24 -28 35 -10 19
-10 20 6 7 9 -8 22 -24 28 -35z m147 -229 c23 -43 41 -83 39 -89 -2 -5 -10 3
-18 19 -8 15 -40 73 -72 129 -32 55 -58 105 -58 110 0 13 61 -81 109 -169z
m-3882 91 c-3 -8 -6 -5 -6 6 -1 11 2 17 5 13 3 -3 4 -12 1 -19z m-27 -11 c0
-7 -7 -25 -15 -40 -13 -26 -13 -28 3 -25 9 2 20 17 24 33 6 27 7 27 3 -5 -2
-19 -7 -96 -11 -170 -15 -330 90 -636 247 -714 86 -42 150 -34 237 31 l33 25
43 -40 c23 -21 48 -41 56 -44 10 -3 -9 -124 -86 -554 -54 -302 -100 -539 -102
-526 -4 28 -23 24 -37 -6 -12 -27 -33 -27 -64 -1 -21 17 -22 23 -13 44 11 23
9 26 -23 40 -20 8 -34 18 -33 22 2 11 -42 83 -51 83 -4 0 -17 9 -29 20 -12 12
-22 18 -22 14 0 -14 -97 91 -132 143 -39 57 -96 186 -135 308 -15 44 -34 96
-44 115 -31 64 -49 144 -64 295 -22 218 -20 408 5 462 13 29 24 41 33 37 11
-4 15 2 15 18 -1 19 23 153 48 275 2 13 18 38 34 57 17 18 30 44 30 58 0 28
27 71 41 63 5 -4 9 -12 9 -18z m1427 -299 c-2 -13 -4 -5 -4 17 -1 22 1 32 4
23 2 -10 2 -28 0 -40z m2627 -147 c-7 -7 -12 3 -18 39 l-6 35 14 -35 c7 -19
12 -37 10 -39z m16 -41 c0 -11 -2 -20 -4 -20 -2 0 -6 9 -9 20 -3 11 -1 20 4
20 5 0 9 -9 9 -20z m-2679 -46 c-5 -21 -9 -30 -10 -19 -1 24 10 67 15 62 3 -2
0 -22 -5 -43z m406 -36 c-3 -8 -6 -5 -6 6 -1 11 2 17 5 13 3 -3 4 -12 1 -19z
m-220 -60 c-2 -13 -4 -5 -4 17 -1 22 1 32 4 23 2 -10 2 -28 0 -40z m438 -79
c9 -16 33 -49 53 -72 l36 -42 -35 33 c-33 30 -87 112 -75 112 3 0 13 -14 21
-31z m-60 1 c4 -6 11 -8 16 -5 5 4 9 0 9 -8 0 -8 6 -20 14 -26 11 -9 12 -18 3
-41 -12 -33 -37 -39 -57 -15 -8 9 -20 13 -29 9 -9 -3 -23 -7 -31 -9 -8 -1 -14
-8 -12 -14 3 -17 -12 -13 -31 9 -28 33 -20 57 15 51 4 0 26 6 48 15 27 11 39
21 36 30 -6 16 10 19 19 4z m-644 -37 c-18 -35 -113 -113 -135 -113 -6 0 11
13 36 29 25 16 58 45 74 65 32 39 40 45 25 19z m1326 -45 c-2 -13 -4 -5 -4 17
-1 22 1 32 4 23 2 -10 2 -28 0 -40z m426 45 c3 -5 -59 -7 -136 -5 -258 4 -285
8 -75 10 114 1 209 -1 211 -5z m625 0 c-10 -2 -26 -2 -35 0 -10 3 -2 5 17 5
19 0 27 -2 18 -5z m-1891 -70 c-2 -16 -4 -5 -4 22 0 28 2 40 4 28 2 -13 2 -35
0 -50z m1063 48 c0 -12 -29 -23 -41 -15 -5 3 -7 10 -4 15 8 12 45 12 45 0z
m-125 -10 c16 -7 13 -9 -19 -15 -40 -8 -52 -4 -41 13 7 13 31 13 60 2z m57 -3
c-9 -9 -15 -9 -24 0 -9 9 -7 12 12 12 19 0 21 -3 12 -12z m-1422 -21 c0 -2
-19 -21 -42 -42 l-43 -40 40 43 c36 39 45 47 45 39z m-291 -63 c10 -9 -35 -3
-49 6 -11 8 -7 9 15 4 17 -4 32 -8 34 -10z m78 0 c-3 -3 -12 -4 -19 -1 -8 3
-5 6 6 6 11 1 17 -2 13 -5z m2331 -9 c3 -3 -22 -5 -56 -5 -34 0 -62 4 -62 10
0 9 108 5 118 -5z m-910 -61 c22 -6 22 -9 21 -153 0 -80 -3 -140 -6 -133 -7
17 -38 15 -53 -3 -11 -13 -10 -18 9 -32 17 -11 20 -18 11 -27 -8 -8 -16 -5
-30 14 -11 14 -18 30 -15 37 2 6 -3 14 -11 17 -8 3 -14 12 -14 20 0 13 -4 14
-25 4 -14 -6 -25 -18 -25 -27 0 -9 -16 22 -35 68 -18 47 -48 104 -64 128 -34
47 -39 62 -16 43 11 -9 19 -9 35 3 20 14 21 16 3 20 -10 3 14 3 52 0 57 -4 73
-2 84 11 14 17 40 20 79 10z m-268 -174 c40 -80 90 -247 70 -235 -4 2 -10 23
-14 45 -3 22 -11 40 -17 40 -6 0 -7 -9 -3 -22 5 -13 8 -36 9 -53 0 -24 -5 -31
-24 -33 -21 -3 -23 -1 -17 25 4 15 8 46 9 68 2 34 -1 40 -20 43 -31 5 -49 28
-34 46 9 11 4 17 -23 30 -26 12 -34 22 -32 39 4 34 28 66 45 59 9 -3 0 13 -19
34 l-35 39 38 -35 c22 -19 51 -60 67 -90z m-305 -141 c9 -25 25 -56 36 -68 13
-14 18 -28 14 -41 -4 -14 -1 -22 10 -26 9 -4 21 -16 26 -28 11 -26 30 -56 47
-74 8 -9 11 -25 7 -42 -3 -16 -2 -31 4 -34 6 -4 8 -13 5 -21 -4 -8 1 -18 10
-21 11 -4 16 -19 16 -45 0 -21 4 -39 10 -39 5 0 16 -13 25 -30 13 -24 22 -30
50 -30 38 0 45 -12 48 -79 1 -23 5 -41 9 -41 4 0 15 -16 24 -36 16 -34 16 -37
-10 -102 -48 -122 -128 -202 -202 -202 -35 0 -101 43 -131 87 -147 208 -183
608 -82 912 l22 65 23 -30 c13 -16 31 -50 39 -75z m687 21 c6 0 8 13 5 33 -6
31 -5 31 13 -8 22 -47 25 -67 7 -43 -9 12 -17 14 -28 7 -12 -8 -12 -11 2 -22
14 -10 15 -16 4 -30 -21 -29 -25 -20 -23 56 0 39 3 57 5 40 2 -18 9 -33 15
-33z m148 50 c0 -5 7 -10 15 -10 8 0 15 5 15 10 0 6 8 10 18 10 13 -1 10 -6
-12 -24 -24 -20 -33 -22 -53 -13 -24 10 -28 19 -16 30 10 11 33 8 33 -3z
m-2080 -420 c33 -195 62 -365 65 -377 l5 -23 -155 0 c-116 0 -155 3 -155 12 0
37 135 749 138 726 4 -35 32 -26 33 11 1 45 7 16 69 -349z m1770 220 c0 -5 -4
-10 -10 -10 -5 0 -10 5 -10 10 0 6 5 10 10 10 6 0 10 -4 10 -10z m221 -37 c13
-16 12 -17 -3 -4 -17 13 -22 21 -14 21 2 0 10 -8 17 -17z m-556 -53 c-3 -5
-13 -10 -21 -10 -8 0 -14 5 -14 10 0 6 9 10 21 10 11 0 17 -4 14 -10z m870
-30 c3 -5 -1 -10 -10 -10 -9 0 -13 5 -10 10 3 6 8 10 10 10 2 0 7 -4 10 -10z
m-465 -252 l0 -162 -22 22 c-20 19 -21 25 -10 43 8 12 11 24 8 27 -3 3 -6 0
-6 -6 0 -7 -4 -12 -10 -12 -15 0 -12 46 3 59 8 6 16 8 19 6 3 -3 5 9 5 27 -2
64 3 158 8 158 3 0 5 -73 5 -162z m294 122 c12 -24 12 -30 3 -17 -8 9 -25 17
-38 17 -23 1 -59 21 -59 33 0 4 18 6 39 4 35 -2 42 -6 55 -37z m-3216 -130 c6
-16 9 -30 7 -30 -5 0 -35 56 -35 65 0 15 19 -8 28 -35z m3481 -167 l-1 -118
-33 70 c-38 80 -43 96 -17 66 12 -15 21 -18 32 -11 13 8 12 11 -5 25 -16 12
-17 14 -2 9 14 -5 17 0 17 35 0 23 2 41 5 41 3 0 5 -53 4 -117z m-3394 -3 c13
-27 14 -32 2 -20 -8 8 -18 26 -22 40 -9 32 -2 25 20 -20z m1832 -102 c-3 -8
-6 -5 -6 6 -1 11 2 17 5 13 3 -3 4 -12 1 -19z m-1170 -70 c-3 -7 -5 -2 -5 12
0 14 2 19 5 13 2 -7 2 -19 0 -25z m166 25 c-18 -2 -48 -2 -65 0 -18 2 -4 4 32
4 36 0 50 -2 33 -4z m263 -63 c15 -77 16 -109 2 -60 -5 19 -14 40 -20 45 -7 7
-9 6 -5 -1 3 -6 0 -22 -8 -37 -11 -22 -11 -28 2 -38 8 -7 20 -24 28 -39 7 -14
37 -39 67 -55 29 -15 55 -31 58 -35 7 -8 119 -91 153 -113 30 -20 35 -35 11
-44 -8 -3 -23 3 -34 14 -10 11 -37 23 -59 27 -23 3 -41 11 -41 17 0 7 -11 9
-31 5 -23 -4 -36 0 -56 18 -14 13 -38 27 -53 30 -15 3 -35 12 -43 21 -9 8 -20
15 -26 15 -6 0 -33 14 -59 30 -27 17 -53 30 -59 30 -13 0 -74 46 -68 52 3 2
-7 11 -21 18 -31 17 -55 60 -49 90 11 57 14 60 58 53 23 -3 51 -9 62 -13 11
-4 43 -3 72 3 43 9 55 8 77 -6 26 -17 26 -17 26 7 0 25 -1 25 -102 29 l-103 3
105 0 104 -1 12 -65z m-359 -2 c-3 -8 -6 -5 -6 6 -1 11 2 17 5 13 3 -3 4 -12
1 -19z m-377 -233 c19 -19 32 -35 29 -35 -3 0 -20 16 -39 35 -19 19 -32 35
-29 35 3 0 20 -16 39 -35z m3928 14 c-2 -6 -8 -10 -13 -10 -5 0 -11 4 -13 10
-2 6 4 11 13 11 9 0 15 -5 13 -11z m-44 -76 c3 -7 3 -13 -1 -13 -6 0 -43 40
-43 47 0 8 40 -23 44 -34z m-64 13 c0 -3 -4 -8 -10 -11 -5 -3 -10 -1 -10 4 0
6 5 11 10 11 6 0 10 -2 10 -4z m14 -92 c9 -8 16 -20 16 -26 0 -6 -9 -1 -20 12
-29 33 -25 44 4 14z m-24 -18 c0 -3 -4 -8 -10 -11 -5 -3 -10 -1 -10 4 0 6 5
11 10 11 6 0 10 -2 10 -4z m-1390 -10 c0 -2 -7 -7 -16 -10 -8 -3 -12 -2 -9 4
6 10 25 14 25 6z m1274 -12 c8 -3 12 -12 9 -20 -3 -8 0 -21 7 -29 7 -8 8 -15
2 -15 -13 0 -28 20 -36 48 -8 24 -6 25 18 16z m-894 -220 c0 -8 -154 -78 -218
-99 -95 -31 -66 -9 45 35 59 23 119 49 133 56 27 14 40 17 40 8z m675 -72 c-8
-8 -25 10 -19 20 4 6 9 5 15 -3 4 -7 6 -15 4 -17z m-165 -108 c0 -3 -7 -12
-15 -20 -16 -17 -18 -14 -9 10 6 15 24 23 24 10z m-100 -33 c0 -5 -7 -12 -16
-15 -14 -5 -15 -4 -4 9 14 17 20 19 20 6z m120 -6 c0 -8 -4 -15 -8 -15 -5 0
-9 7 -9 15 0 8 4 15 9 15 4 0 8 -7 8 -15z m-2665 -85 c3 -5 1 -10 -4 -10 -6 0
-11 5 -11 10 0 6 2 10 4 10 3 0 8 -4 11 -10z m1865 -123 c0 -5 -4 -5 -10 -2
-5 3 -10 14 -10 23 0 15 2 15 10 2 5 -8 10 -19 10 -23z m-176 8 c-4 -8 -10
-12 -15 -9 -14 8 -10 24 6 24 9 0 12 -6 9 -15z m-174 -6 c0 -8 -33 -29 -45
-29 -3 0 -1 8 4 18 10 18 41 26 41 11z m-85 -53 c-29 -29 -35 -31 -35 -13 0
11 50 47 58 41 2 -1 -9 -14 -23 -28z m164 25 c7 -5 12 -13 10 -18 -2 -5 -12
-1 -21 9 -19 19 -13 24 11 9z m-629 -45 c0 -2 -7 -9 -15 -16 -13 -11 -14 -10
-9 4 5 14 24 23 24 12z"/>
<path d="M3041 3944 c0 -11 3 -14 6 -6 3 7 2 16 -1 19 -3 4 -6 -2 -5 -13z"/>
<path d="M1428 3725 c-15 -45 -18 -83 -9 -106 14 -36 23 -5 19 67 -2 37 -6 52
-10 39z"/>
<path d="M3930 3708 c0 -12 -7 -29 -15 -38 -11 -13 -12 -24 -4 -53 18 -65 29
-52 29 32 0 45 -2 81 -5 81 -3 0 -5 -10 -5 -22z"/>
<path d="M3800 3696 c0 -2 8 -10 18 -17 15 -13 16 -12 3 4 -13 16 -21 21 -21
13z"/>
<path d="M1531 3598 c-1 -72 8 -85 28 -42 9 22 9 30 -3 43 -8 9 -16 27 -19 41
-2 14 -5 -5 -6 -42z"/>
<path d="M3699 3613 c0 -5 -2 -18 -5 -30 -2 -12 1 -25 6 -28 6 -4 10 9 10 29
0 20 -2 36 -5 36 -3 0 -5 -3 -6 -7z"/>
<path d="M1406 3577 c-18 -13 -18 -14 -1 -21 22 -8 28 -3 23 19 -3 14 -5 14
-22 2z"/>
<path d="M3690 3479 c0 -31 4 -48 10 -44 6 3 10 26 10 51 0 24 -4 44 -10 44
-5 0 -10 -23 -10 -51z"/>
<path d="M2060 3490 c-22 -6 -23 -8 -7 -15 11 -4 23 -3 30 4 15 15 7 19 -23
11z"/>
<path d="M1531 3420 c-6 -65 -6 -140 0 -140 12 0 15 34 9 100 -4 36 -8 54 -9
40z"/>
<path d="M1316 3387 c3 -10 9 -15 12 -12 3 3 0 11 -7 18 -10 9 -11 8 -5 -6z"/>
<path d="M3691 3375 c1 -11 5 -31 9 -45 8 -24 8 -24 9 5 0 17 -4 37 -9 45 -8
12 -10 11 -9 -5z"/>
<path d="M1320 3345 c0 -11 5 -27 10 -35 8 -12 10 -12 10 5 0 11 -5 27 -10 35
-8 12 -10 12 -10 -5z"/>
<path d="M3803 3320 c0 -25 2 -35 4 -22 2 12 2 32 0 45 -2 12 -4 2 -4 -23z"/>
<path d="M1585 3320 c-3 -5 -1 -10 4 -10 6 0 11 5 11 10 0 6 -2 10 -4 10 -3 0
-8 -4 -11 -10z"/>
<path d="M1417 3313 c-2 -5 0 -21 4 -38 7 -29 7 -29 8 8 1 35 -3 46 -12 30z"/>
<path d="M1550 3285 c0 -9 9 -15 21 -15 18 0 19 2 9 15 -7 8 -16 15 -21 15 -5
0 -9 -7 -9 -15z"/>
<path d="M2550 3290 c0 -5 5 -10 11 -10 5 0 7 5 4 10 -3 6 -8 10 -11 10 -2 0
-4 -4 -4 -10z"/>
<path d="M3175 3278 c-4 -13 -16 -32 -26 -43 -17 -19 -17 -21 7 -42 23 -21 24
-21 34 -3 13 24 13 110 1 110 -5 0 -13 -10 -16 -22z"/>
<path d="M1341 3244 c0 -11 3 -14 6 -6 3 7 2 16 -1 19 -3 4 -6 -2 -5 -13z"/>
<path d="M2540 3233 c0 -22 2 -25 10 -13 13 20 13 40 0 40 -5 0 -10 -12 -10
-27z"/>
<path d="M3928 3158 c-2 -7 -1 -31 3 -53 6 -40 6 -39 8 13 1 51 -3 65 -11 40z"/>
<path d="M2646 3134 c-20 -19 -23 -108 -3 -102 20 7 34 58 18 67 -10 7 -11 13
-2 30 14 25 9 27 -13 5z"/>
<path d="M2522 3110 c-15 -24 -15 -33 -1 -24 7 4 7 -1 -1 -16 -10 -18 -9 -25
4 -38 15 -15 16 -11 16 41 0 31 -1 57 -3 57 -1 0 -8 -9 -15 -20z"/>
<path d="M2450 3053 l0 -48 20 25 c11 14 17 31 15 38 -3 8 -5 18 -5 23 0 5 -7
9 -15 9 -11 0 -15 -12 -15 -47z"/>
<path d="M2340 3031 c-13 -26 -13 -31 5 -31 9 0 15 9 15 25 0 30 -6 32 -20 6z"/>
<path d="M2221 2958 c-1 -30 3 -38 17 -38 14 0 15 2 2 10 -13 9 -13 11 0 20 9
6 10 10 3 10 -6 0 -14 8 -16 18 -3 9 -5 0 -6 -20z"/>
<path d="M2451 2948 c0 -33 2 -38 9 -23 12 28 12 65 0 65 -5 0 -10 -19 -9 -42z"/>
<path d="M2345 2970 c3 -5 2 -10 -3 -10 -17 0 -23 -32 -9 -49 8 -9 17 -23 20
-31 3 -8 6 -3 6 13 1 15 -4 27 -11 27 -9 0 -9 3 0 12 15 15 16 48 1 48 -5 0
-7 -4 -4 -10z"/>
<path d="M3800 2829 c0 -5 5 -7 10 -4 6 3 10 8 10 11 0 2 -4 4 -10 4 -5 0 -10
-5 -10 -11z"/>
<path d="M2330 2820 c19 -13 30 -13 30 0 0 6 -10 10 -22 10 -19 0 -20 -2 -8
-10z"/>
<path d="M3490 2820 c0 -5 5 -10 10 -10 6 0 10 5 10 10 0 6 -4 10 -10 10 -5 0
-10 -4 -10 -10z"/>
<path d="M3880 2740 c0 -5 6 -10 14 -10 8 0 18 5 21 10 3 6 -3 10 -14 10 -12
0 -21 -4 -21 -10z"/>
<path d="M3290 2670 c0 -5 5 -10 11 -10 5 0 7 5 4 10 -3 6 -8 10 -11 10 -2 0
-4 -4 -4 -10z"/>
<path d="M3685 2670 c-3 -5 1 -10 9 -10 9 0 16 5 16 10 0 6 -4 10 -9 10 -6 0
-13 -4 -16 -10z"/>
<path d="M1575 2631 c-6 -11 12 -81 21 -81 3 0 16 11 30 23 l25 24 -22 -1
c-15 -1 -27 8 -35 22 -7 15 -14 20 -19 13z"/>
<path d="M2280 2560 c0 -5 4 -10 9 -10 6 0 13 5 16 10 3 6 -1 10 -9 10 -9 0
-16 -4 -16 -10z"/>
<path d="M1227 2525 c-4 -8 -2 -17 2 -20 5 -2 11 4 14 15 6 23 -8 27 -16 5z"/>
<path d="M2000 2309 c0 -5 5 -7 10 -4 6 3 10 8 10 11 0 2 -4 4 -10 4 -5 0 -10
-5 -10 -11z"/>
<path d="M1800 2040 c0 -11 9 -29 20 -40 11 -11 20 -31 20 -44 0 -13 7 -26 15
-29 16 -7 14 -2 -24 86 -22 51 -31 59 -31 27z"/>
<path d="M1770 1914 c0 -8 5 -12 10 -9 6 4 8 11 5 16 -9 14 -15 11 -15 -7z"/>
<path d="M1540 1875 c7 -8 19 -15 26 -15 8 0 11 6 8 15 -4 8 -15 15 -26 15
-17 0 -18 -3 -8 -15z"/>
<path d="M1671 1844 c0 -11 3 -14 6 -6 3 7 2 16 -1 19 -3 4 -6 -2 -5 -13z"/>
<path d="M1988 1618 c-3 -7 3 -24 13 -38 9 -14 29 -52 43 -84 15 -33 29 -57
31 -54 6 6 -61 168 -74 181 -5 5 -11 3 -13 -5z"/>
<path d="M1937 1523 c-4 -3 -7 -11 -7 -17 0 -6 5 -5 12 2 6 6 9 14 7 17 -3 3
-9 2 -12 -2z"/>
<path d="M2330 1287 c0 -25 5 -49 10 -52 13 -8 15 14 6 72 -5 34 -16 21 -16
-20z"/>
<path d="M2490 1305 c0 -5 5 -17 10 -25 5 -8 10 -10 10 -5 0 6 -5 17 -10 25
-5 8 -10 11 -10 5z"/>
<path d="M3032 1215 c-17 -37 -15 -41 8 -12 22 27 25 37 12 37 -5 0 -14 -11
-20 -25z"/>
<path d="M1607 1082 c2 -11 0 -23 -6 -26 -6 -4 -11 -11 -11 -16 0 -14 30 -20
48 -9 14 9 28 7 61 -11 42 -21 75 -19 36 2 -11 6 -30 22 -43 35 -21 21 -25 22
-35 9 -13 -17 -32 -9 -32 13 0 8 -5 16 -12 18 -7 3 -10 -3 -6 -15z"/>
<path d="M2615 1090 c3 -5 16 -15 28 -21 22 -12 22 -12 3 10 -19 21 -43 30
-31 11z"/>
<path d="M2670 1051 c0 -10 30 -24 37 -17 3 2 -5 9 -16 16 -12 6 -21 7 -21 1z"/>
<path d="M2444 841 c-40 -10 -56 -20 -49 -32 10 -15 34 -10 73 16 37 25 32 29
-24 16z"/>
<path d="M766 3343 c-13 -64 -27 -196 -22 -201 3 -3 6 5 6 17 0 12 5 32 12 44
9 18 20 167 12 167 -1 0 -5 -12 -8 -27z"/>
<path d="M1037 3354 c-8 -8 1 -24 14 -24 5 0 9 7 9 15 0 15 -12 20 -23 9z"/>
<path d="M1100 3299 c0 -5 5 -7 10 -4 6 3 10 8 10 11 0 2 -4 4 -10 4 -5 0 -10
-5 -10 -11z"/>
<path d="M1040 2980 c0 -5 5 -10 11 -10 5 0 7 5 4 10 -3 6 -8 10 -11 10 -2 0
-4 -4 -4 -10z"/>
<path d="M761 2814 c0 -11 3 -14 6 -6 3 7 2 16 -1 19 -3 4 -6 -2 -5 -13z"/>
<path d="M1058 2539 c6 -7 12 -21 12 -32 0 -10 5 -17 12 -15 22 8 19 25 -9 43
-15 10 -22 12 -15 4z"/>
<path d="M4030 2675 c0 -8 4 -15 10 -15 5 0 7 7 4 15 -4 8 -8 15 -10 15 -2 0
-4 -7 -4 -15z"/>
<path d="M606 3055 c-28 -28 -29 -31 -17 -75 7 -25 16 -46 20 -48 4 -1 6 -17
4 -35 l-4 -32 16 28 c12 20 15 49 13 110 l-3 82 -29 -30z"/>
<path d="M671 2724 c0 -11 3 -14 6 -6 3 7 2 16 -1 19 -3 4 -6 -2 -5 -13z"/>
<path d="M627 2713 c-4 -3 -7 -11 -7 -17 0 -6 5 -5 12 2 6 6 9 14 7 17 -3 3
-9 2 -12 -2z"/>
<path d="M484 2627 c-3 -8 4 -32 15 -53 12 -21 21 -33 21 -25 0 7 9 26 21 43
24 34 25 33 -19 43 -24 5 -33 3 -38 -8z"/>
<path d="M530 2484 c0 -8 5 -12 10 -9 6 4 8 11 5 16 -9 14 -15 11 -15 -7z"/>
<path d="M1150 2425 c-11 -13 -9 -15 15 -15 16 0 25 5 23 12 -7 19 -24 20 -38
3z"/>
<path d="M1028 2353 c7 -3 16 -2 19 1 4 3 -2 6 -13 5 -11 0 -14 -3 -6 -6z"/>
<path d="M1121 2101 c-18 -11 1 -23 26 -15 16 5 16 4 -2 -11 -20 -17 -19 -17
7 -11 17 4 32 1 41 -9 17 -17 27 -10 27 21 0 17 -5 21 -19 17 -10 -3 -22 0
-25 6 -8 13 -36 14 -55 2z"/>
<path d="M800 1884 c0 -10 43 -45 48 -39 6 6 -28 45 -40 45 -4 0 -8 -3 -8 -6z"/>
<path d="M930 1535 c0 -3 12 -17 27 -31 19 -18 29 -21 37 -14 8 8 4 17 -13 31
-22 18 -51 26 -51 14z"/>
<path d="M1071 1429 c11 -22 29 -25 29 -5 0 7 -9 16 -20 19 -17 4 -18 2 -9
-14z"/>
<path d="M3192 2151 c-9 -5 -3 -8 17 -7 17 1 31 4 31 9 0 10 -32 9 -48 -2z"/>
<path d="M2970 2128 c0 -9 5 -20 10 -23 13 -8 13 5 0 25 -8 13 -10 13 -10 -2z"/>
<path d="M1187 1380 c-11 -40 -8 -50 13 -50 21 0 26 10 11 26 -5 5 -11 18 -13
29 -3 18 -5 17 -11 -5z"/>
<path d="M3435 4736 c-16 -11 -17 -19 -9 -47 7 -26 15 -34 33 -34 17 0 26 9
35 36 7 19 11 40 8 47 -5 16 -44 15 -67 -2z"/>
<path d="M4338 4583 c-3 -57 9 -99 32 -113 6 -4 14 -20 16 -36 3 -16 6 -37 8
-46 1 -10 19 -36 39 -59 20 -22 37 -48 37 -58 0 -10 16 -32 36 -49 25 -22 35
-38 31 -51 -3 -12 1 -22 9 -25 8 -3 14 -15 14 -26 0 -11 5 -20 11 -20 6 0 9
-7 5 -15 -4 -11 2 -15 27 -15 19 -1 44 -11 62 -25 29 -25 30 -25 8 -31 -19 -5
-20 -8 -8 -20 7 -8 23 -14 34 -14 14 0 21 -6 21 -20 0 -11 7 -20 15 -20 8 0
15 -4 15 -9 0 -5 14 -14 30 -21 34 -14 63 -60 54 -84 -5 -12 -1 -16 16 -14 18
2 23 -3 25 -22 2 -14 -4 -35 -11 -48 -13 -20 -13 -23 2 -29 9 -3 25 -1 35 5
23 15 49 5 49 -18 0 -18 28 -36 39 -24 3 3 6 56 6 117 l0 112 -77 96 c-101
127 -248 275 -326 328 -77 52 -174 165 -213 249 -16 34 -31 62 -34 62 -2 0 -5
-26 -7 -57z"/>
<path d="M3020 4610 c-15 -9 -7 -85 12 -107 16 -19 46 -16 58 6 12 24 13 71 1
90 -11 16 -52 23 -71 11z"/>
<path d="M3520 4385 c-20 -22 -20 -24 -4 -61 28 -65 30 -69 51 -72 16 -2 24 7
37 47 21 64 10 97 -33 103 -23 3 -36 -1 -51 -17z"/>
<path d="M4009 4204 c-10 -13 -10 -22 0 -52 19 -54 29 -64 52 -51 25 13 39 4
39 -25 0 -28 18 -46 45 -46 16 0 23 10 32 41 10 39 9 43 -18 73 l-30 31 -16
-22 c-22 -32 -37 -29 -30 7 4 16 4 37 1 45 -8 20 -58 19 -75 -1z"/>
<path d="M3997 2344 c3 -7 9 -14 14 -14 14 0 10 17 -5 23 -10 4 -13 1 -9 -9z"/>
<path d="M4055 2350 c-3 -6 1 -7 9 -4 18 7 21 14 7 14 -6 0 -13 -4 -16 -10z"/>
<path d="M4665 2290 c-3 -5 -1 -10 4 -10 6 0 11 5 11 10 0 6 -2 10 -4 10 -3 0
-8 -4 -11 -10z"/>
<path d="M4639 2238 c-12 -23 -12 -23 10 -4 23 21 26 26 11 26 -5 0 -15 -10
-21 -22z"/>
<path d="M3680 2235 c27 -14 36 -13 25 4 -3 6 -16 11 -28 11 -21 -1 -21 -1 3
-15z"/>
<path d="M3726 2206 c3 -9 11 -16 16 -16 13 0 5 23 -10 28 -7 2 -10 -2 -6 -12z"/>
<path d="M3760 2211 c0 -5 5 -11 10 -13 6 -2 12 -16 14 -31 4 -42 16 -45 16
-4 0 26 -6 39 -20 47 -12 6 -20 7 -20 1z"/>
<path d="M4525 1890 c-3 -5 -1 -10 4 -10 6 0 11 5 11 10 0 6 -2 10 -4 10 -3 0
-8 -4 -11 -10z"/>
<path d="M4270 1580 c0 -5 5 -10 10 -10 6 0 10 5 10 10 0 6 -4 10 -10 10 -5 0
-10 -4 -10 -10z"/>
<path d="M4112 1458 c6 -18 28 -21 28 -4 0 9 -7 16 -16 16 -9 0 -14 -5 -12
-12z"/>
<path d="M3333 1345 c0 -33 2 -45 4 -27 2 18 2 45 0 60 -2 15 -4 0 -4 -33z"/>
<path d="M3730 1211 c0 -5 5 -13 10 -16 6 -3 10 -2 10 4 0 5 -4 13 -10 16 -5
3 -10 2 -10 -4z"/>
<path d="M4720 864 c0 -8 5 -12 10 -9 6 3 10 10 10 16 0 5 -4 9 -10 9 -5 0
-10 -7 -10 -16z"/>
<path d="M4716 826 c3 -9 11 -16 16 -16 13 0 5 23 -10 28 -7 2 -10 -2 -6 -12z"/>
<path d="M4658 713 c7 -3 16 -2 19 1 4 3 -2 6 -13 5 -11 0 -14 -3 -6 -6z"/>
<path d="M4615 700 c3 -5 16 -10 28 -10 18 0 19 2 7 10 -20 13 -43 13 -35 0z"/>
<path d="M4555 649 c-4 -6 -5 -12 -2 -15 2 -3 7 2 10 11 7 17 1 20 -8 4z"/>
<path d="M4968 574 c-16 -8 -28 -21 -28 -30 0 -17 -39 -34 -78 -34 -15 0 -47
-7 -72 -16 -64 -23 -150 -43 -185 -44 -51 0 -163 -70 -149 -92 8 -12 -15 -38
-34 -38 -8 0 -43 -13 -76 -29 -117 -55 -134 -61 -168 -61 -39 0 -108 -30 -137
-59 -12 -12 -34 -21 -49 -21 -16 0 -31 -3 -35 -6 -3 -4 -43 -8 -88 -10 -45 -3
-87 -8 -93 -13 -6 -4 -28 -11 -50 -14 -21 -3 -56 -15 -77 -26 -21 -11 -58 -22
-82 -25 -24 -2 -59 -15 -82 -30 l-40 -27 720 5 c396 2 745 5 775 5 40 0 51 3
40 11 -8 5 -23 7 -32 4 -10 -3 -18 -1 -18 5 0 6 9 11 21 11 11 0 18 4 15 9 -4
5 -30 3 -63 -6 -31 -8 -66 -12 -79 -9 -12 3 -26 2 -29 -4 -9 -15 -22 -12 -22
5 0 14 31 29 53 24 5 -1 29 -1 54 0 43 1 47 14 5 23 -11 3 6 8 38 12 31 5 59
12 62 16 3 5 8 34 11 65 l7 57 -44 -6 c-24 -4 -74 -10 -112 -12 -58 -5 -66 -4
-61 10 5 12 10 13 26 5 16 -8 23 -8 28 2 5 7 35 15 69 17 35 3 65 10 72 18 10
12 3 14 -47 10 l-59 -5 60 12 c49 10 60 16 60 32 0 18 -7 20 -63 21 -35 1 -66
5 -69 8 -4 3 -2 6 3 7 37 2 101 10 112 14 20 7 14 23 -10 28 -20 4 -19 4 5 6
24 1 26 4 18 20 -6 10 -7 21 -4 25 3 3 -1 6 -10 6 -9 0 -17 5 -17 10 0 6 8 10
18 10 13 0 14 2 3 9 -10 7 -11 9 0 13 10 3 27 99 17 98 -2 -1 -15 -8 -30 -16z
m-1 -150 c-3 -3 -12 -4 -19 -1 -8 3 -5 6 6 6 11 1 17 -2 13 -5z m-117 -88 c0
-11 -19 -15 -25 -6 -3 5 1 10 9 10 9 0 16 -2 16 -4z m110 -32 c0 -2 -9 -4 -21
-4 -11 0 -18 4 -14 10 5 8 35 3 35 -6z m-193 -90 c-3 -3 -12 -4 -19 -1 -8 3
-5 6 6 6 11 1 17 -2 13 -5z m198 -84 c-3 -5 -16 -10 -28 -9 -21 0 -21 1 -2 9
28 12 37 12 30 0z m-105 -40 c0 -5 -2 -10 -4 -10 -3 0 -8 5 -11 10 -3 6 -1 10
4 10 6 0 11 -4 11 -10z m-23 -16 c-3 -3 -12 -4 -19 -1 -8 3 -5 6 6 6 11 1 17
-2 13 -5z m-77 -44 c0 -6 -25 -9 -57 -8 l-58 1 45 7 c69 11 70 11 70 0z m-143
-6 c-3 -3 -12 -4 -19 -1 -8 3 -5 6 6 6 11 1 17 -2 13 -5z"/>
<path d="M4320 425 c-5 -6 -5 -16 -1 -24 6 -10 12 -9 25 4 9 9 16 20 16 24 0
12 -29 9 -40 -4z"/>
<path d="M4390 380 c0 -5 5 -10 10 -10 6 0 10 5 10 10 0 6 -4 10 -10 10 -5 0
-10 -4 -10 -10z"/>
<path d="M1260 325 c0 -8 2 -15 4 -15 2 0 6 7 10 15 3 8 1 15 -4 15 -6 0 -10
-7 -10 -15z"/>
<path d="M1295 310 c3 -5 8 -10 11 -10 2 0 4 5 4 10 0 6 -5 10 -11 10 -5 0 -7
-4 -4 -10z"/>
<path d="M4170 280 c0 -5 5 -10 10 -10 6 0 10 5 10 10 0 6 -4 10 -10 10 -5 0
-10 -4 -10 -10z"/>
<path d="M3840 230 c-12 -7 -10 -9 8 -7 12 0 22 5 22 9 0 11 -12 10 -30 -2z"/>
<path d="M3950 210 c-13 -8 -12 -10 3 -10 9 0 17 5 17 10 0 12 -1 12 -20 0z"/>
<path d="M3580 201 c0 -5 5 -13 10 -16 6 -3 10 -2 10 4 0 5 -4 13 -10 16 -5 3
-10 2 -10 -4z"/>
<path d="M3860 200 c-12 -8 -12 -10 -1 -10 8 0 20 -8 27 -17 17 -25 28 -10 12
16 -15 24 -17 24 -38 11z"/>
<path d="M3731 182 c7 -11 19 -18 26 -15 20 8 10 27 -16 31 -20 3 -21 1 -10
-16z"/>
<path d="M3830 181 c0 -5 5 -13 10 -16 6 -3 10 -2 10 4 0 5 -4 13 -10 16 -5 3
-10 2 -10 -4z"/>
<path d="M3955 181 c-3 -5 -1 -12 5 -16 5 -3 10 -2 10 4 0 5 8 12 18 14 13 4
12 5 -5 6 -12 0 -24 -3 -28 -8z"/>
<path d="M3683 165 c0 -8 4 -12 9 -9 4 3 8 9 8 15 0 5 -4 9 -8 9 -5 0 -9 -7
-9 -15z"/>
<path d="M3796 167 c3 -10 9 -15 12 -12 3 3 0 11 -7 18 -10 9 -11 8 -5 -6z"/>
<path d="M3440 160 c0 -5 5 -10 11 -10 5 0 7 5 4 10 -3 6 -8 10 -11 10 -2 0
-4 -4 -4 -10z"/>
<path d="M1555 140 c-3 -6 1 -7 9 -4 18 7 21 14 7 14 -6 0 -13 -4 -16 -10z"/>
<path d="M3738 143 c7 -3 16 -2 19 1 4 3 -2 6 -13 5 -11 0 -14 -3 -6 -6z"/>
<path d="M4930 76 c0 -12 6 -13 33 -4 45 15 46 18 4 18 -26 0 -37 -4 -37 -14z"/>
<path d="M3200 60 c0 -5 5 -10 10 -10 6 0 10 5 10 10 0 6 -4 10 -10 10 -5 0
-10 -4 -10 -10z"/>
<path d="M2950 49 c0 -5 5 -7 10 -4 6 3 10 8 10 11 0 2 -4 4 -10 4 -5 0 -10
-5 -10 -11z"/>
</g>
</svg>
